[img]http://img268.imageshack.us/img268/4176/youngmz.jpg[/img]
[code]
Young Adult 2011 720P CAM READNFO Xvid AC3-26K

Imdb: 
http://www.imdb.com/title/tt1430607/

Plot:
Soon after her divorce, a fiction writer returns to her home in small-town Minnesota, looking to rekindle a romance with her ex-boyfriend, who is now happily married and has a newborn daughter.

Sources:
THNXS TO A SPECIAL FRIEND !!

Notes:
WELL HERE IS HD CAM FOR THIS AND THE LAST YOU WILL SEE UNTIL RETAIL!!
VIDEO WAS VERY DARK FOR A HD CAM!!! ROTATED, CROPPED .EXTRA...
SO BOTTOM LINE ADDED FEW FILTERS TO IT TO MAKE IT LOOK NICE!! SO TAKE IT OR LEAVE IT !!!!
CHECK SAMPLE FOR QUALITY!

Greetz:
Xtreme Encode|FYA|ILLUMANTI|CM8|RX|VISION|HDSCENE|NIGHTMAREZ|xTriLL|DTRG|CRYS|REMIXHD|BIDA|RX|REFILL|INSPiRAL|SIC|ZOMBIESZ|HOPE|Anonymous|GooN
To all the people who have helped me :P you know who you are

Anything to offer email us @: 26k@hushmail.me

Video
ID                                       : 0
Format                                   : MPEG-4 Visual
Format profile                           : Advanced Simple@L5
Format settings, BVOP                    : 2
Format settings, QPel                    : No
Format settings, GMC                     : No warppoints
Format settings, Matrix                  : Default (H.263)
Codec ID                                 : XVID
Codec ID/Hint                            : XviD
Duration                                 : 1h 27mn
Bit rate                                 : 2 561 Kbps
Width                                    : 1 280 pixels
Height                                   : 608 pixels
Display aspect ratio                     : 2.2:1
Frame rate                               : 59.940 fps
Color space                              : YUV
Chroma subsampling                       : 4:2:0
Bit depth                                : 8 bits
Scan type                                : Progressive
Compression mode                         : Lossy
Bits/(Pixel*Frame)                       : 0.055
Stream size                              : 1.59 GiB (91%)
Writing library                          : XviD 64

Audio
ID                                       : 1
Format                                   : AC-3
Format/Info                              : Audio Coding 3
Mode extension                           : CM (complete main)
Codec ID                                 : 2000
Duration                                 : 1h 27mn
Source duration                          : 1h 27mn
Bit rate mode                            : Constant
Bit rate                                 : 224 Kbps
Channel(s)                               : 2 channels
Channel positions                        : Front: L R
Sampling rate                            : 44.1 KHz
Bit depth                                : 16 bits
Compression mode                         : Lossy
Stream size                              : 142 MiB (8%)
Alignment                                : Aligned on interleaves
Interleave, duration                     : 35 ms (2.09 video frames)

[/code]
Screens:
[IMG]http://i.imgur.com/4nByh.png[/IMG]
[IMG]http://i.imgur.com/PpMQN.png[/IMG]
[IMG]http://i.imgur.com/HbdHn.jpg[/IMG]
[IMG]http://img696.imageshack.us/img696/9968/vlcsnap2012021821h08m52.png[/IMG]
[IMG]http://img692.imageshack.us/img692/1714/vlcsnap2012021821h08m14ld.png[/IMG]
[IMG]http://img26.imageshack.us/img26/9832/vlcsnap2012021821h09m05.png[/IMG]

[img]http://img851.imageshack.us/img851/5503/26ks.jpg[/img]
Thank you smallz for banner!